<?xml version="1.0" encoding="utf-8"?>
<svg xmlns="http://www.w3.org/2000/svg" xmlns:xlink="http://www.w3.org/1999/xlink" style="margin: auto; background: none; display: block; shape-rendering: auto;" width="125px" height="125px" viewBox="0 0 100 100" preserveAspectRatio="xMidYMid">
<g transform="rotate(0 50 50)">
  <rect x="47" y="23.5" rx="3" ry="4.94" width="6" height="13" fill="#003b64">
    <animate attributeName="opacity" values="1;0" keyTimes="0;1" dur="1.0989010989010988s" begin="-1.0256410256410255s" repeatCount="indefinite"></animate>
  </rect>
</g><g transform="rotate(24 50 50)">
  <rect x="47" y="23.5" rx="3" ry="4.94" width="6" height="13" fill="#003b64">
    <animate attributeName="opacity" values="1;0" keyTimes="0;1" dur="1.0989010989010988s" begin="-0.9523809523809523s" repeatCount="indefinite"></animate>
  </rect>
</g><g transform="rotate(48 50 50)">
  <rect x="47" y="23.5" rx="3" ry="4.94" width="6" height="13" fill="#003b64">
    <animate attributeName="opacity" values="1;0" keyTimes="0;1" dur="1.0989010989010988s" begin="-0.8791208791208791s" repeatCount="indefinite"></animate>
  </rect>
</g><g transform="rotate(72 50 50)">
  <rect x="47" y="23.5" rx="3" ry="4.94" width="6" height="13" fill="#003b64">
    <animate attributeName="opacity" values="1;0" keyTimes="0;1" dur="1.0989010989010988s" begin="-0.8058608058608059s" repeatCount="indefinite"></animate>
  </rect>
</g><g transform="rotate(96 50 50)">
  <rect x="47" y="23.5" rx="3" ry="4.94" width="6" height="13" fill="#003b64">
    <animate attributeName="opacity" values="1;0" keyTimes="0;1" dur="1.0989010989010988s" begin="-0.7326007326007326s" repeatCount="indefinite"></animate>
  </rect>
</g><g transform="rotate(120 50 50)">
  <rect x="47" y="23.5" rx="3" ry="4.94" width="6" height="13" fill="#003b64">
    <animate attributeName="opacity" values="1;0" keyTimes="0;1" dur="1.0989010989010988s" begin="-0.6593406593406593s" repeatCount="indefinite"></animate>
  </rect>
</g><g transform="rotate(144 50 50)">
  <rect x="47" y="23.5" rx="3" ry="4.94" width="6" height="13" fill="#003b64">
    <animate attributeName="opacity" values="1;0" keyTimes="0;1" dur="1.0989010989010988s" begin="-0.5860805860805861s" repeatCount="indefinite"></animate>
  </rect>
</g><g transform="rotate(168 50 50)">
  <rect x="47" y="23.5" rx="3" ry="4.94" width="6" height="13" fill="#003b64">
    <animate attributeName="opacity" values="1;0" keyTimes="0;1" dur="1.0989010989010988s" begin="-0.5128205128205128s" repeatCount="indefinite"></animate>
  </rect>
</g><g transform="rotate(192 50 50)">
  <rect x="47" y="23.5" rx="3" ry="4.94" width="6" height="13" fill="#003b64">
    <animate attributeName="opacity" values="1;0" keyTimes="0;1" dur="1.0989010989010988s" begin="-0.43956043956043955s" repeatCount="indefinite"></animate>
  </rect>
</g><g transform="rotate(216 50 50)">
  <rect x="47" y="23.5" rx="3" ry="4.94" width="6" height="13" fill="#003b64">
    <animate attributeName="opacity" values="1;0" keyTimes="0;1" dur="1.0989010989010988s" begin="-0.3663003663003663s" repeatCount="indefinite"></animate>
  </rect>
</g><g transform="rotate(240 50 50)">
  <rect x="47" y="23.5" rx="3" ry="4.94" width="6" height="13" fill="#003b64">
    <animate attributeName="opacity" values="1;0" keyTimes="0;1" dur="1.0989010989010988s" begin="-0.29304029304029305s" repeatCount="indefinite"></animate>
  </rect>
</g><g transform="rotate(264 50 50)">
  <rect x="47" y="23.5" rx="3" ry="4.94" width="6" height="13" fill="#003b64">
    <animate attributeName="opacity" values="1;0" keyTimes="0;1" dur="1.0989010989010988s" begin="-0.21978021978021978s" repeatCount="indefinite"></animate>
  </rect>
</g><g transform="rotate(288 50 50)">
  <rect x="47" y="23.5" rx="3" ry="4.94" width="6" height="13" fill="#003b64">
    <animate attributeName="opacity" values="1;0" keyTimes="0;1" dur="1.0989010989010988s" begin="-0.14652014652014653s" repeatCount="indefinite"></animate>
  </rect>
</g><g transform="rotate(312 50 50)">
  <rect x="47" y="23.5" rx="3" ry="4.94" width="6" height="13" fill="#003b64">
    <animate attributeName="opacity" values="1;0" keyTimes="0;1" dur="1.0989010989010988s" begin="-0.07326007326007326s" repeatCount="indefinite"></animate>
  </rect>
</g><g transform="rotate(336 50 50)">
  <rect x="47" y="23.5" rx="3" ry="4.94" width="6" height="13" fill="#003b64">
    <animate attributeName="opacity" values="1;0" keyTimes="0;1" dur="1.0989010989010988s" begin="0s" repeatCount="indefinite"></animate>
  </rect>
</g>
<!-- [ldio] generated by https://loading.io/ --></svg>